<?xml version="1.0" standalone="no"?>
<!DOCTYPE svg PUBLIC "-//W3C//DTD SVG 20010904//EN"
 "http://www.w3.org/TR/2001/REC-SVG-20010904/DTD/svg10.dtd">
<svg version="1.0" xmlns="http://www.w3.org/2000/svg"
 width="512.000000pt" height="512.000000pt" viewBox="0 0 512.000000 512.000000"
 preserveAspectRatio="xMidYMid meet">
<metadata>
Created by potrace 1.14, written by Peter Selinger 2001-2017
</metadata>
<g transform="translate(0.000000,512.000000) scale(0.100000,-0.100000)"
fill="#000000" stroke="none">
<path d="M0 2560 l0 -2560 2560 0 2560 0 0 2560 0 2560 -2560 0 -2560 0 0
-2560z m1060 515 l0 -365 385 0 385 0 0 365 0 365 185 0 185 0 0 -890 0 -890
-185 0 -185 0 -2 368 -3 367 -380 0 -380 0 -3 -367 -2 -368 -190 0 -190 0 0
890 0 890 190 0 190 0 0 -365z m2165 -230 c159 -389 246 -590 255 -590 10 0
97 201 257 590 l241 590 236 3 236 2 0 -890 0 -890 -185 0 -185 0 0 580 c0
319 -3 580 -7 580 -5 0 -111 -259 -237 -575 l-230 -575 -125 0 -126 0 -229
575 c-127 316 -233 575 -238 575 -4 0 -8 -261 -8 -580 l0 -580 -185 0 -185 0
0 890 0 890 236 -2 237 -3 242 -590z"/>
</g>
</svg>
